{
    "asset" : {
        "generator" : "Khronos glTF Blender I/O v1.5.17",
        "version" : "2.0"
    },
    "scene" : 0,
    "scenes" : [
        {
            "name" : "Scene",
            "nodes" : [
                0,
                1
            ]
        }
    ],
    "nodes" : [
        {
            "mesh" : 0,
            "name" : "uploads files 925088 SGDEF",
            "scale" : [
                0.3923052251338959,
                0.3923056125640869,
                0.3923052251338959
            ],
            "translation" : [
                -51.048282623291016,
                -0.035196706652641296,
                49.789588928222656
            ]
        },
        {
            "mesh" : 1,
            "name" : "Circle",
            "rotation" : [
                -0.7071068286895752,
                0,
                0,
                0.7071068286895752
            ],
            "scale" : [
                2.793581962585449,
                2.8627853393554688,
                2.793581962585449
            ],
            "translation" : [
                -1.2200367450714111,
                3.49118971824646,
                -0.18952178955078125
            ]
        }
    ],
    "materials" : [
        {
            "doubleSided" : true,
            "name" : "Portal_outer",
            "pbrMetallicRoughness" : {
                "baseColorFactor" : [
                    0.8000000715255737,
                    0.36703330278396606,
                    0,
                    1
                ],
                "metallicFactor" : 0,
                "roughnessFactor" : 0.4000000059604645
            }
        },
        {
            "doubleSided" : true,
            "name" : "Portal_jnner",
            "pbrMetallicRoughness" : {
                "baseColorFactor" : [
                    0.05701734870672226,
                    0.7325566411018372,
                    0.8000000715255737,
                    1
                ],
                "metallicFactor" : 0,
                "roughnessFactor" : 0.5
            }
        }
    ],
    "meshes" : [
        {
            "name" : "uploads files 925088 SGDEF",
            "primitives" : [
                {
                    "attributes" : {
                        "POSITION" : 0,
                        "NORMAL" : 1
                    },
                    "indices" : 2,
                    "material" : 0
                }
            ]
        },
        {
            "name" : "Circle",
            "primitives" : [
                {
                    "attributes" : {
                        "POSITION" : 3,
                        "NORMAL" : 4,
                        "TEXCOORD_0" : 5
                    },
                    "indices" : 6,
                    "material" : 1
                }
            ]
        }
    ],
    "accessors" : [
        {
            "bufferView" : 0,
            "componentType" : 5126,
            "count" : 10536,
            "max" : [
                135.8227996826172,
                17.662731170654297,
                -126.9991226196289
            ],
            "min" : [
                118.2689208984375,
                0.062248412519693375,
                -128.03976440429688
            ],
            "type" : "VEC3"
        },
        {
            "bufferView" : 1,
            "componentType" : 5126,
            "count" : 10536,
            "type" : "VEC3"
        },
        {
            "bufferView" : 2,
            "componentType" : 5123,
            "count" : 10536,
            "type" : "SCALAR"
        },
        {
            "bufferView" : 3,
            "componentType" : 5126,
            "count" : 32,
            "max" : [
                1,
                0,
                1
            ],
            "min" : [
                -1,
                0,
                -1
            ],
            "type" : "VEC3"
        },
        {
            "bufferView" : 4,
            "componentType" : 5126,
            "count" : 32,
            "type" : "VEC3"
        },
        {
            "bufferView" : 5,
            "componentType" : 5126,
            "count" : 32,
            "type" : "VEC2"
        },
        {
            "bufferView" : 6,
            "componentType" : 5123,
            "count" : 90,
            "type" : "SCALAR"
        }
    ],
    "bufferViews" : [
        {
            "buffer" : 0,
            "byteLength" : 126432,
            "byteOffset" : 0
        },
        {
            "buffer" : 0,
            "byteLength" : 126432,
            "byteOffset" : 126432
        },
        {
            "buffer" : 0,
            "byteLength" : 21072,
            "byteOffset" : 252864
        },
        {
            "buffer" : 0,
            "byteLength" : 384,
            "byteOffset" : 273936
        },
        {
            "buffer" : 0,
            "byteLength" : 384,
            "byteOffset" : 274320
        },
        {
            "buffer" : 0,
            "byteLength" : 256,
            "byteOffset" : 274704
        },
        {
            "buffer" : 0,
            "byteLength" : 180,
            "byteOffset" : 274960
        }
    ],
    "buffers" : [
        {
            "byteLength" : 275140,
            "uri" : "data:application/octet-stream;base64,"
        }
    ]
}
